<svg xmlns="http://www.w3.org/2000/svg" xmlns:xlink="http://www.w3.org/1999/xlink" width="500" zoomAndPan="magnify" viewBox="0 0 375 374.999991" height="500" preserveAspectRatio="xMidYMid meet" version="1.0"><defs><clipPath id="caaddfe0f9"><path d="M 0.378906 3.371094 L 373 3.371094 L 373 371.53125 L 0.378906 371.53125 Z M 0.378906 3.371094 " clip-rule="nonzero"/></clipPath></defs><g clip-path="url(#caaddfe0f9)"><path fill="#ffffff" d="M 365.195312 167.054688 C 375.378906 177.238281 375.378906 193.746094 365.195312 203.929688 L 205.042969 364.082031 C 199.953125 369.171875 193.273438 371.71875 186.59375 371.71875 C 179.9375 371.71875 173.257812 369.171875 168.167969 364.082031 L 8.015625 203.929688 C -2.167969 193.746094 -2.167969 177.238281 8.015625 167.054688 C 18.199219 156.871094 34.707031 156.871094 44.914062 167.054688 L 186.59375 308.757812 L 328.296875 167.054688 C 338.503906 156.871094 355.011719 156.871094 365.195312 167.054688 Z M 168.167969 208.035156 C 173.257812 213.128906 179.9375 215.675781 186.59375 215.675781 C 193.273438 215.675781 199.953125 213.128906 205.042969 208.035156 L 365.195312 47.910156 C 375.378906 37.703125 375.378906 21.191406 365.195312 11.007812 C 355.011719 0.828125 338.503906 0.828125 328.296875 11.007812 L 186.59375 152.710938 L 44.914062 11.007812 C 34.707031 0.828125 18.199219 0.828125 8.015625 11.007812 C -2.167969 21.191406 -2.167969 37.703125 8.015625 47.910156 Z M 168.167969 208.035156 " fill-opacity="1" fill-rule="nonzero"/></g></svg>