<svg xmlns="http://www.w3.org/2000/svg" xmlns:xlink="http://www.w3.org/1999/xlink" width="500" zoomAndPan="magnify" viewBox="0 0 375 374.999991" height="500" preserveAspectRatio="xMidYMid meet" version="1.0"><path fill="#ffffff" d="M 187.5 0 C 83.941406 0 0 83.941406 0 187.5 C 0 291.058594 83.941406 375 187.5 375 C 291.058594 375 375 291.058594 375 187.5 C 375 83.941406 290.882812 0 187.5 0 Z M 187.5 352.910156 C 96.136719 352.910156 21.914062 278.863281 21.914062 187.324219 C 21.914062 95.960938 95.960938 21.738281 187.5 21.738281 C 279.039062 21.738281 353.085938 95.78125 353.085938 187.324219 C 352.910156 278.863281 278.863281 352.910156 187.5 352.910156 Z M 187.5 352.910156 " fill-opacity="1" fill-rule="nonzero"/><path fill="#ffffff" d="M 72.632812 115.042969 L 72.632812 267.023438 L 304.136719 267.023438 L 304.136719 115.042969 Z M 291.765625 254.652344 L 85.003906 254.652344 L 85.003906 127.414062 L 291.765625 127.414062 Z M 291.765625 254.652344 " fill-opacity="1" fill-rule="nonzero"/><path fill="#ffffff" d="M 77.402344 125.824219 L 187.5 213.832031 L 298.304688 126.355469 L 292.296875 120.347656 L 282.929688 120.347656 L 188.207031 195.628906 L 91.894531 119.285156 L 72.808594 114.691406 Z M 77.402344 125.824219 " fill-opacity="1" fill-rule="nonzero"/><path fill="#ffffff" d="M 77.050781 254.300781 L 164.878906 187.5 L 174.421875 195.984375 L 88.714844 260.660156 Z M 77.050781 254.300781 " fill-opacity="1" fill-rule="nonzero"/><path fill="#ffffff" d="M 197.75 195.984375 L 287.699219 260.660156 L 298.304688 254.300781 L 208.351562 187.5 Z M 197.75 195.984375 " fill-opacity="1" fill-rule="nonzero"/></svg>