<svg xmlns="http://www.w3.org/2000/svg" xmlns:xlink="http://www.w3.org/1999/xlink" width="500" zoomAndPan="magnify" viewBox="0 0 375 374.999991" height="500" preserveAspectRatio="xMidYMid meet" version="1.0"><path fill="#ffffff" d="M 187.519531 26.476562 C 96.804688 26.476562 26.472656 96.804688 26.472656 187.523438 C 26.472656 278.238281 96.804688 348.5625 187.519531 348.5625 C 278.234375 348.5625 348.558594 278.238281 348.558594 187.523438 C 348.558594 96.804688 278.234375 26.476562 187.519531 26.476562 Z M 187.519531 375.039062 C 137.429688 375.039062 90.339844 355.535156 54.921875 320.117188 C 19.503906 284.699219 0 237.609375 0 187.523438 C 0 137.433594 19.503906 90.339844 54.921875 54.925781 C 90.339844 19.507812 137.429688 0.00390625 187.519531 0.00390625 C 237.605469 0.00390625 284.695312 19.507812 320.113281 54.925781 C 355.53125 90.339844 375.035156 137.433594 375.035156 187.523438 C 375.035156 237.609375 355.53125 284.699219 320.113281 320.117188 C 284.695312 355.535156 237.605469 375.039062 187.519531 375.039062 " fill-opacity="1" fill-rule="nonzero"/><path fill="#ffffff" d="M 132.730469 274.546875 L 132.730469 100.492188 C 132.730469 95.527344 138.160156 92.476562 142.402344 95.058594 L 290.570312 182.085938 C 294.640625 184.566406 294.640625 190.476562 290.570312 192.957031 L 142.402344 279.984375 C 138.160156 282.570312 132.730469 279.515625 132.730469 274.546875 " fill-opacity="1" fill-rule="nonzero"/></svg>