<svg xmlns="http://www.w3.org/2000/svg" xmlns:xlink="http://www.w3.org/1999/xlink" width="500" zoomAndPan="magnify" viewBox="0 0 375 374.999991" height="500" preserveAspectRatio="xMidYMid meet" version="1.0"><path fill="#ffffff" d="M 319.175781 53.796875 C 283.863281 19.082031 237.242188 0.0117188 187.757812 0.0117188 C 187.304688 0.0117188 186.839844 0.0117188 186.375 0.0117188 C 83.75 0.742188 0.257812 85.601562 0.257812 189.167969 L 0.257812 363.910156 C 0.257812 368.378906 2.957031 372.414062 7.078125 374.125 C 8.449219 374.691406 9.886719 374.96875 11.3125 374.96875 C 14.1875 374.96875 17.019531 373.839844 19.128906 371.726562 L 50.417969 340.441406 C 57.503906 333.355469 68.582031 332.589844 76.773438 338.605469 C 109.121094 362.386719 147.484375 374.957031 187.738281 374.957031 C 187.769531 374.957031 187.804688 374.957031 187.835938 374.957031 C 238.070312 374.933594 285.324219 355.101562 320.886719 319.125 C 356.464844 283.140625 375.757812 235.636719 375.203125 185.378906 C 374.671875 135.527344 354.761719 88.796875 319.175781 53.796875 Z M 305.179688 303.605469 C 273.804688 335.34375 232.125 352.84375 187.835938 352.867188 C 187.804688 352.867188 187.78125 352.867188 187.746094 352.867188 C 152.238281 352.867188 118.398438 341.777344 89.875 320.804688 C 82.234375 315.191406 73.355469 312.425781 64.558594 312.425781 C 53.722656 312.425781 42.988281 316.617188 34.785156 324.820312 L 22.371094 337.234375 L 22.371094 189.179688 C 22.371094 97.71875 96.007812 22.785156 186.53125 22.132812 C 186.941406 22.132812 187.328125 22.132812 187.726562 22.132812 C 278.027344 22.132812 352.109375 95.242188 353.105469 185.652344 C 353.589844 229.953125 336.574219 271.851562 305.179688 303.605469 Z M 305.179688 303.605469 " fill-opacity="1" fill-rule="nonzero"/><path fill="#ffffff" d="M 253.59375 220.15625 C 247.746094 214.308594 238.269531 214.308594 232.421875 220.15625 L 223.5 229.078125 C 223.457031 229.125 218.171875 233.601562 209.957031 235.015625 C 192.378906 238.035156 174.523438 224.503906 162.640625 212.617188 C 127.195312 177.175781 142.664062 155.714844 146.445312 151.480469 L 155.101562 142.824219 C 160.949219 136.976562 160.949219 127.503906 155.101562 121.652344 L 140.984375 107.535156 C 135.136719 101.6875 125.660156 101.6875 119.8125 107.535156 L 110.890625 116.457031 C 108.292969 119.054688 95.113281 133.21875 91.058594 156.832031 C 87.398438 178.148438 90.714844 211.257812 127.351562 247.894531 C 156.9375 277.480469 184.222656 285.339844 204.851562 285.339844 C 209.769531 285.339844 214.304688 284.898438 218.414062 284.191406 C 242.03125 280.132812 256.191406 266.957031 258.789062 264.355469 L 267.710938 255.433594 C 273.558594 249.585938 273.558594 240.113281 267.710938 234.265625 Z M 146.390625 151.527344 C 146.246094 151.679688 146.167969 151.746094 146.167969 151.746094 Z M 146.390625 151.527344 " fill-opacity="1" fill-rule="nonzero"/></svg>